<?xml version="1.0" encoding="utf-8"?>
<!-- Generator: Adobe Illustrator 22.1.0, SVG Export Plug-In . SVG Version: 6.00 Build 0)  -->
<svg version="1.1" id="图层_1" xmlns="http://www.w3.org/2000/svg" xmlns:xlink="http://www.w3.org/1999/xlink" x="0px" y="0px"
	 viewBox="0 0 597 92" style="enable-background:new 0 0 597 92;" xml:space="preserve">
<style type="text/css">
	.st0{fill:#242933;}
</style>
<g transform="translate(216.000000, 221.000000)">
	<path id="V23e" class="st0" d="M-163-130c5,0,8.9-1.1,11.7-3.2c2.4-1.8,4.6-4.8,6.5-9.1l0,0l34.6-77.8h-18.2l-30.4,70.6
		c-1.1,2.4-2.5,3.6-4.1,3.6c-1.8,0-3.3-1.2-4.4-3.6l0,0l-30.2-70.6H-216l34.7,77.8c1.8,4.3,4,7.4,6.6,9.2
		C-171.9-131-168-130-163-130z M-22.2-130.9v-14.5h-61.1v-4.5c0-4.2,1.1-7.3,3.3-9.4c2.2-2.1,6.5-3.9,12.9-5.6l0,0l19.2-5.1
		c9.5-2.6,16.2-5.4,20.1-8.5c5.2-4.2,7.8-10.2,7.8-18c0-8.6-3.1-14.9-9.3-18.7c-6.1-3.8-16-5.8-29.9-5.8c-12.9,0-25.5,1.3-38,3.8
		l0,0v14.8c10.8-2.7,22.8-4.1,35.9-4.1c9.2,0,15.5,0.8,18.9,2.4c3.3,1.5,5,4.3,5,8.3c0,3.5-1.5,6.2-4.5,8.2c-2.2,1.5-6.4,3-12.5,4.6
		l0,0l-21.7,5.3c-11.7,3.2-18.8,7.7-21.4,13.7c-1.9,4-2.8,9-2.7,15l0,0v18H-22.2z M28-130c15.3,0,26.6-2.3,33.9-6.9
		c7.3-4.7,11-11.9,11-21.7c0-16.2-10.5-24.4-31.6-24.6l0,0h-5.6l29.5-21.8c3.4-2.5,5.2-5.3,5.2-8.6c0-4-2.4-6.2-7.2-6.4l0,0H-6.5
		v14.1H46l-32.8,23.9v10.9H35c7.4,0,12.6,0.9,15.6,2.6c3.4,1.9,5,5.2,5,9.9c0,5.3-2.1,9-6.2,11.2c-4.2,2.2-11.5,3.3-21.9,3.3
		c-12.9,0-24.8-1.3-35.7-4l0,0v14.4C1.8-131.3,13.9-130,28-130z M123.4-130c10.7,0,18.9-1.1,24.6-3.3l0,0v-13.1
		c-8.2,2.4-15.9,3.6-23.2,3.6c-8.5,0.1-14.6-1.1-18.2-3.6c-3.7-2.5-5.8-6.6-6.3-12.4l0,0h50.9c0.5-3.1,0.8-6.6,0.8-10.5
		c0-8.3-2.4-14.8-7.3-19.6c-5.6-5.5-14.1-8.2-25.4-8.2c-11.1,0-19.6,2.7-25.4,8.2c-6,5.6-9,14-9,25.1c0,11.8,2.9,20.3,8.8,25.6
		C99.6-132.7,109.5-130,123.4-130z M136.3-168.6h-35.9c0.6-5.4,2.4-9.4,5.5-11.9c3-2.5,7.5-3.7,13.4-3.7c6.1,0,10.6,1.3,13.3,3.9
		C135.3-177.8,136.5-173.9,136.3-168.6L136.3-168.6z"/>
	<g id="编组-11" transform="translate(395.000000, 0.000000)">
		<path id="Fill-17" class="st0" d="M-112.9-189.7c-1.2,1.8-2.8,5.2-1.9,10.1c1.4,7.3,7.6,12.8,16,15.9c0.2,0.1,0.4-0.2,0.2-0.4
			c-3.5-2.2-5.4-5.8-5.4-11.3c0-10.5,8-13.7,24.4-13.7c8.2,0,15.5,0.8,20.5,1.5c3.3,0.5,6.3-2.1,6.3-5.5v-4.4
			c-3.5-1-12.3-2.8-26.9-2.8C-96.1-200.2-107.3-197.1-112.9-189.7"/>
		<path id="Fill-18" class="st0" d="M-84-161c11.4,0,17.8-1.1,20.4-2.1v-6.6h-9.5c-3.1,0-5.7-2.6-5.7-5.7v-4.8h23.4
			c2.5,0,4.5,2,4.5,4.6v0.3v5.7v17.7c0,1.6-1.2,2.3-2.2,2.3c-0.9,0-1.6-0.4-2.5-0.7l-6.7-3.3c-3.6,1.3-9.2,4-22.7,4
			c-21.3,0-32.1-7.7-32.1-25.5c0-0.7,0-1.4,0.1-2.1c1,3.1,2.8,6.5,6.6,9.5C-104.6-163.2-95.5-161-84-161"/>
		<path id="Fill-19" class="st0" d="M-154.7-181.8c-5,0-12.2,0.5-16.4,0.8l1.3-7.8h35.2c3.5,0,6.3-2.8,6.3-6.3v-4.2h-49
			c-1.5,0-2.8,1.1-3.1,2.6l-3,17.7c-0.8,4.4,0.7,7.6,5.9,7.4c9.7-0.3,13.9-0.4,21.2-0.4c13.3,0,17.6,0.5,17.6,5.8
			c0,5-4.1,5.9-17.7,5.9c-9.7,0-21.5-1.8-27.7-3.2v5.3c0,3.2,2.3,5.9,5.4,6.5c5.3,1,13.3,2,22.5,2c20.9,0,31.3-4.7,31.3-16.5
			C-124.8-180.9-138.9-181.8-154.7-181.8"/>
		<path id="Fill-20" class="st0" d="M-59.6-221h-111c-21.9,0-45.5,14.4-45.5,46.1c0,18.2,7.9,29,14.5,34.8
			c8.1,7.2,19.1,11.1,31,11.1h111c22,0,45.6-14.4,45.6-45.9c0-18.3-7.9-29.1-14.5-34.9C-36.7-217-47.7-221-59.6-221 M-59.6-212.7
			c18.6,0,37.3,11.7,37.3,37.7c0,26-18.7,37.6-37.3,37.6h-111c-18.5,0-37.1-11.6-37.1-37.6c0-26.1,18.7-37.7,37.1-37.7H-59.6"/>
	</g>
</g>
</svg>
