<?xml version="1.0" encoding="UTF-8"?>
<svg width="906px" height="126px" viewBox="0 0 906 126" version="1.1" xmlns="http://www.w3.org/2000/svg" xmlns:xlink="http://www.w3.org/1999/xlink">
    <title>编组 11</title>
    <g id="页面-1" stroke="none" stroke-width="1" fill="none" fill-rule="evenodd">
        <g id="my-pc" transform="translate(-724.000000, -847.000000)" fill="#242933" fill-rule="nonzero">
            <g id="组-155" transform="translate(0.000000, 80.000000)">
                <g id="编组-11" transform="translate(724.000000, 767.000000)">
                    <g id="t1-5g" transform="translate(625.000000, 0.000000)">
                        <path d="M217.600921,0 C234.12111,0 249.475073,5.43019882 260.834819,15.2958121 C270.032834,23.2908566 281,38.0672146 281,63.08457 C281,106.312563 248.131021,126 217.600921,126 L217.600921,126 L63.2212494,126 C46.7457735,126 31.43652,120.582169 20.1147119,110.74196 C10.9353253,102.771986 0,88.0330661 0,63.08457 C0,19.7435945 32.7802334,0 63.2212494,0 L63.2212494,0 L217.600921,0 Z M217.600921,11.4045874 L63.2212494,11.4045874 C37.509142,11.4045874 11.5629784,27.3823082 11.5629784,63.08457 C11.5629784,98.667832 37.509142,114.595413 63.2212494,114.595413 L63.2212494,114.595413 L217.600921,114.595413 C243.401773,114.595413 269.443458,98.667832 269.443458,63.08457 C269.443458,27.3823082 243.401773,11.4045874 217.600921,11.4045874 L217.600921,11.4045874 Z M223.391931,55.8081707 C226.878402,55.8081707 229.718594,58.6106811 229.718594,62.0703648 L229.718594,94.3694344 C229.718594,96.6090362 228.070369,97.5289446 226.625039,97.5289446 C225.389038,97.5289446 224.361694,97.0158417 223.125693,96.5090898 L213.749847,92.0235352 C208.697458,93.856666 200.970175,97.5289446 182.123303,97.5289446 C152.449496,97.5289446 137.514192,87.025212 137.514192,62.5396783 C137.514192,61.5385426 137.55213,60.5751797 137.609035,59.6181677 C138.984927,63.8720742 141.558544,68.4953479 146.72508,72.5864652 C155.004141,79.1301139 167.676439,82.1268349 183.663814,82.1268349 C199.530944,82.1268349 208.386849,80.5942119 212.000344,79.2678326 L212.000344,70.1907599 L198.776609,70.1907599 C194.402342,70.1907599 190.8654,66.6809361 190.8654,62.3581703 L190.8654,55.8081707 L223.391931,55.8081707 Z M122.035342,29.6867248 L122.035342,35.4735884 C122.035342,40.2466146 118.118013,44.1127692 113.274617,44.1127692 L113.274617,44.1127692 L64.2851423,44.1127692 L62.5166714,54.8605179 C68.3230568,54.4476959 78.3834609,53.7343661 85.331344,53.7343661 C85.5501101,53.7343661 85.7686507,53.7344786 85.9869456,53.7347217 L87.2936377,53.7378873 C87.5108844,53.7387233 87.72785,53.7397253 87.9445195,53.7409112 L89.2408365,53.7503741 C109.489633,53.9376534 126.808963,56.0639061 126.808963,74.9169883 C126.808963,91.0818996 112.292321,97.5256019 83.2583599,97.5256019 C70.4722525,97.5256019 59.4481816,96.1370486 52.0057654,94.8106696 C47.6443711,94.0284803 44.4810397,90.2686233 44.4810397,85.8897001 L44.4810397,85.8897001 L44.4810397,78.6016347 C53.1912943,80.5407286 69.5722667,82.9992768 83.0554645,82.9992768 C102.02902,82.9992768 107.728032,81.7671616 107.728032,74.9169883 C107.728032,67.7539393 101.711975,67.0345926 83.2583599,67.0345926 L82.4435255,67.0348286 C79.4882704,67.0365738 76.8807065,67.0481502 74.3101909,67.0746784 L72.9099006,67.0906619 C67.5418802,67.1578527 62.0888901,67.2944822 53.7112335,67.5473612 C46.554362,67.8538857 44.3736641,63.4559095 45.514482,57.4190124 L45.514482,57.4190124 L49.6733207,33.2463546 C50.0279629,31.1882609 51.8286142,29.6867248 53.9395334,29.6867248 L53.9395334,29.6867248 L122.035342,29.6867248 Z M189.536692,28.471256 C209.828556,28.471256 222.095062,30.9174361 226.937781,32.243481 L226.937781,32.243481 L226.937781,38.2930802 C226.937781,42.9534576 222.766748,46.5381576 218.114053,45.8689511 C211.045925,44.8490965 200.959777,43.7667339 189.536692,43.7667339 C166.772149,43.7667339 155.64714,48.1586934 155.64714,62.5406142 C155.64714,70.016539 158.296629,74.9212669 163.146125,77.949075 C163.444199,78.1369341 163.2159,78.5808432 162.886323,78.4621777 C151.323684,74.2019203 142.581587,66.5695577 140.69253,56.622717 C139.437223,49.9727708 141.6816,45.2933401 143.393166,42.8535112 C151.247469,32.6813733 166.860896,28.471256 189.536692,28.471256 Z" id="形状结合"></path>
                    </g>
                    <path d="M72.9818689,124 L72.9818689,24.6608696 L124,24.6608696 L124,5 L0,5 L0,24.6608696 L50.8451883,24.6608696 L50.8451883,124 L72.9818689,124 Z M192,124 L192,11.6182336 C192,5.87274454 189.385321,3 184.155963,3 C181.599388,3 177.938838,3.57454891 173.174312,4.72364672 L173.174312,4.72364672 L135,13.8589744 L135,32.8190883 L169.688073,25.5797721 L169.688073,124 L192,124 Z M304.131376,124 L304.131376,82.9536232 L350.109737,82.9536232 C362.919629,82.9536232 373.156105,79.6193237 380.819165,72.9507246 C388.939722,65.9371981 393,56.2792271 393,43.9768116 C393,31.6743961 388.996909,22.0164251 380.990726,15.0028986 C373.327666,8.33429952 363.034003,5 350.109737,5 L350.109737,5 L282,5 L282,124 L304.131376,124 Z M348.4,64 L304,64 L304,25 L348.4,25 C362.685714,25.1150442 369.885714,31.6150442 370,44.5 C370,50.8274336 368.114286,55.659292 364.342857,58.9955752 C360.571429,62.3318584 355.257143,64 348.4,64 L348.4,64 Z M434.535014,124 L434.535014,59.203125 C445.302521,57.7135417 458.79085,56.796875 475,56.453125 L475,56.453125 L475,36 C459.717087,36.1145833 445.53408,39.3802083 432.45098,45.796875 L432.45098,45.796875 L423.593838,39.265625 C421.046685,37.0885417 418.846872,36 416.994398,36 C414.331466,36 413,37.4322917 413,40.296875 L413,40.296875 L413,124 L434.535014,124 Z M543.320883,126 C557.174873,126 568.027165,122.221374 575.877759,114.664122 C583.959253,106.877863 588,95.6564885 588,81 C588,66.3435115 583.959253,55.1221374 575.877759,47.3358779 C568.027165,39.778626 557.174873,36 543.320883,36 L543.320883,36 L530.505942,36 C516.767402,36 505.972835,39.778626 498.122241,47.3358779 C490.040747,55.1221374 486,66.3435115 486,81 C486,95.6564885 490.040747,106.877863 498.122241,114.664122 C505.972835,122.221374 516.767402,126 530.505942,126 L530.505942,126 L543.320883,126 Z M543.077151,108 L532.750742,108 C525.063304,108 519.269041,105.936306 515.367953,101.808917 C511.122651,97.3375796 509,90.4012739 509,81 C509,71.5987261 511.122651,64.6624204 515.367953,60.1910828 C519.269041,56.0636943 525.063304,54 532.750742,54 L532.750742,54 L543.077151,54 C559.025717,54 567,63 567,81 C567,99 559.025717,108 543.077151,108 L543.077151,108 Z" id="T1Pro"></path>
                </g>
            </g>
        </g>
    </g>
</svg>